<svg width="20" height="20" viewBox="0 0 20 20" fill="none" xmlns="http://www.w3.org/2000/svg">
<path fill-rule="evenodd" clip-rule="evenodd" d="M10.7472 1.29781C10.6069 1.01339 10.3171 0.833328 9.99998 0.833328C9.68281 0.833328 9.39315 1.01339 9.25273 1.29781L6.87145 6.12205L1.54615 6.90042C1.23235 6.94629 0.97178 7.16629 0.873966 7.46797C0.776151 7.76964 0.858045 8.10069 1.08523 8.32196L4.9379 12.0745L4.02866 17.3758C3.97504 17.6884 4.10358 18.0044 4.36023 18.1909C4.61687 18.3773 4.95711 18.4019 5.23788 18.2542L9.99998 15.7498L14.7621 18.2542C15.0429 18.4019 15.3831 18.3773 15.6398 18.1909C15.8964 18.0044 16.025 17.6884 15.9713 17.3758L15.0621 12.0745L18.9148 8.32196C19.142 8.10069 19.2239 7.76964 19.1261 7.46797C19.0282 7.16629 18.7676 6.94629 18.4539 6.90042L13.1286 6.12205L10.7472 1.29781ZM8.17226 7.25218L9.99998 3.54937L11.8277 7.25218C11.9491 7.49789 12.1833 7.66827 12.4545 7.7079L16.543 8.3055L13.5852 11.1863C13.3886 11.3778 13.299 11.6537 13.3453 11.9242L14.0431 15.9931L10.3879 14.0707C10.1451 13.9431 9.85498 13.9431 9.61215 14.0707L5.95682 15.9931L6.65468 11.9242C6.70106 11.6537 6.61135 11.3778 6.41478 11.1863L3.45701 8.3055L7.54553 7.7079C7.81665 7.66827 8.05098 7.49789 8.17226 7.25218Z" fill="black"/>
</svg>
