<svg width="20" height="20" viewBox="0 0 20 20" fill="none" xmlns="http://www.w3.org/2000/svg">
<path fill-rule="evenodd" clip-rule="evenodd" d="M10.831 4.67913L10.8518 4.57981L10.8984 4.4896C10.8984 4.4896 11.1604 3.98125 11.6433 3.69424C11.6433 3.69424 12.0955 3.42543 12.6269 3.41692C12.6269 3.41692 13.1583 3.40841 13.6189 3.66259C13.6189 3.66259 14.1107 3.93399 14.3889 4.43367L19.6626 13.9053C19.6626 13.9053 19.9713 14.4596 19.9057 15.0748C19.9057 15.0748 19.845 15.6443 19.4838 16.0996C19.4838 16.0996 19.1226 16.5549 18.5818 16.7435C18.5818 16.7435 17.9977 16.9473 17.3877 16.7728L17.3505 16.7622L15.6178 16.067L10.4598 6.44675L10.831 4.67913ZM5.20909 4.48957C5.20909 4.48957 5.47118 3.98124 5.95402 3.69424C5.95402 3.69424 6.40625 3.42543 6.93764 3.41692C6.93764 3.41692 7.46904 3.40841 7.92964 3.66259C7.92964 3.66259 8.42143 3.93399 8.69964 4.43368L13.9734 13.9053C13.9734 13.9053 14.282 14.4596 14.2165 15.0747C14.2165 15.0747 14.1558 15.6443 13.7945 16.0996C13.7945 16.0996 13.4333 16.5549 12.8925 16.7435C12.8925 16.7435 12.3084 16.9473 11.6984 16.7728L7.3545 15.5301C7.3545 15.5301 7.22242 15.4923 7.09035 15.5301L2.61133 16.8098C2.61133 16.8098 2.01121 16.9813 1.43414 16.7856C1.43414 16.7856 0.898811 16.6042 0.535538 16.1609C0.535538 16.1609 0.172264 15.7176 0.0994784 15.1571C0.0994784 15.1571 0.0210176 14.5528 0.307019 13.9981L5.20909 4.48957ZM12.2739 5.10702L12.0402 6.21987L16.6822 14.8778L17.8307 15.3386C18.119 15.4064 18.3087 15.1673 18.3087 15.1673C18.5084 14.9157 18.3521 14.635 18.3521 14.635L13.0784 5.16338C12.9385 4.91212 12.6509 4.91673 12.6509 4.91673C12.4058 4.92065 12.2739 5.10702 12.2739 5.10702ZM6.96166 4.91673C6.96166 4.91673 6.67413 4.92133 6.54233 5.17694L6.54232 5.17696L1.64027 14.6854C1.64027 14.6854 1.49563 14.966 1.6957 15.2101C1.6957 15.2101 1.89578 15.4542 2.19928 15.3675L6.67827 14.0878C6.67827 14.0878 7.2227 13.9323 7.76699 14.088L12.111 15.3306C12.111 15.3306 12.4198 15.419 12.6194 15.1673C12.6194 15.1673 12.8191 14.9157 12.6628 14.635L7.3891 5.16338C7.3891 5.16338 7.2492 4.91212 6.96166 4.91673Z" fill="black"/>
</svg>
